<svg width="100%" viewBox="0 0 360 120" style="max-width:360px"><text x="180" y="18" text-anchor="middle" font-size="11" fill="#94a3b8">TLC — 8가지 전하 상태 (3비트/셀)</text><g><rect x="8" y="82" width="36" height="8" rx="3" fill="#f59e0b" opacity="0.7374999999999999"></rect><text x="26" y="105" text-anchor="middle" font-size="9" fill="#94a3b8">000</text></g><g><rect x="52" y="75" width="36" height="15" rx="3" fill="#f59e0b" opacity="0.7749999999999999"></rect><text x="70" y="105" text-anchor="middle" font-size="9" fill="#94a3b8">001</text></g><g><rect x="96" y="67" width="36" height="23" rx="3" fill="#f59e0b" opacity="0.8125"></rect><text x="114" y="105" text-anchor="middle" font-size="9" fill="#94a3b8">010</text></g><g><rect x="140" y="60" width="36" height="30" rx="3" fill="#f59e0b" opacity="0.85"></rect><text x="158" y="105" text-anchor="middle" font-size="9" fill="#94a3b8">011</text></g><g><rect x="184" y="52" width="36" height="38" rx="3" fill="#f59e0b" opacity="0.8875"></rect><text x="202" y="105" text-anchor="middle" font-size="9" fill="#94a3b8">100</text></g><g><rect x="228" y="45" width="36" height="45" rx="3" fill="#f59e0b" opacity="0.9249999999999999"></rect><text x="246" y="105" text-anchor="middle" font-size="9" fill="#94a3b8">101</text></g><g><rect x="272" y="37" width="36" height="53" rx="3" fill="#f59e0b" opacity="0.9624999999999999"></rect><text x="290" y="105" text-anchor="middle" font-size="9" fill="#94a3b8">110</text></g><g><rect x="316" y="30" width="36" height="60" rx="3" fill="#f59e0b" opacity="1"></rect><text x="334" y="105" text-anchor="middle" font-size="9" fill="#94a3b8">111</text></g><text x="180" y="118" text-anchor="middle" font-size="9" fill="#64748b">각 막대 = 플로팅 게이트 전하량 레벨 (이진 코드)</text></svg>