<svg width="100%" viewBox="0 0 400 180" style="max-width:400px"><text x="90" y="18" text-anchor="middle" font-size="11" fill="#94a3b8" font-weight="600">2D NAND</text><rect x="30" y="30" width="16" height="120" rx="2" fill="#6366f1" opacity="0.5"></rect><rect x="50" y="30" width="16" height="120" rx="2" fill="#6366f1" opacity="0.5"></rect><rect x="70" y="30" width="16" height="120" rx="2" fill="#6366f1" opacity="0.5"></rect><rect x="90" y="30" width="16" height="120" rx="2" fill="#6366f1" opacity="0.5"></rect><rect x="110" y="30" width="16" height="120" rx="2" fill="#6366f1" opacity="0.5"></rect><text x="90" y="165" text-anchor="middle" font-size="9" fill="#64748b">셀 가로 배열 → 미세화 한계</text><text x="205" y="95" text-anchor="middle" font-size="20" fill="#94a3b8">→</text><text x="310" y="18" text-anchor="middle" font-size="11" fill="#94a3b8" font-weight="600">3D NAND</text><rect x="270" y="30" width="80" height="24" rx="3" fill="#0ea5e9" opacity="0.55"></rect><rect x="260" y="60" width="100" height="24" rx="3" fill="#0ea5e9" opacity="0.7000000000000001"></rect><rect x="250" y="90" width="120" height="24" rx="3" fill="#0ea5e9" opacity="0.8500000000000001"></rect><rect x="263.3333333333333" y="130" width="93.33333333333334" height="10" rx="2" fill="#f59e0b" opacity="0.4"></rect><rect x="260" y="118" width="100" height="10" rx="2" fill="#f59e0b" opacity="0.48000000000000004"></rect><rect x="256.6666666666667" y="106" width="106.66666666666666" height="10" rx="2" fill="#f59e0b" opacity="0.56"></rect><rect x="253.33333333333334" y="94" width="113.33333333333333" height="10" rx="2" fill="#f59e0b" opacity="0.64"></rect><rect x="250" y="82" width="120" height="10" rx="2" fill="#f59e0b" opacity="0.72"></rect><rect x="246.66666666666666" y="70" width="126.66666666666667" height="10" rx="2" fill="#f59e0b" opacity="0.8"></rect><text x="220" y="170" text-anchor="start" font-size="9" fill="#64748b">층을 위로 쌓아 100층+ 달성</text></svg>