<svg width="100%" viewBox="0 0 220 170" style="max-width:220px;font-family:sans-serif"><rect x="50" y="110" width="120" height="22" fill="#c7d2fe" stroke="#6366f1" stroke-width="1.2" rx="2"></rect><rect x="50" y="80" width="120" height="22" fill="#c7d2fe" stroke="#6366f1" stroke-width="1.2" rx="2"></rect><rect x="50" y="50" width="120" height="22" fill="#c7d2fe" stroke="#6366f1" stroke-width="1.2" rx="2"></rect><rect x="50" y="140" width="120" height="20" fill="#fde68a" stroke="#d97706" stroke-width="1.2" rx="2"></rect><path d="M50 54 Q20 40 30 150" fill="none" stroke="#ef4444" stroke-width="1.5"></path><path d="M50 84 Q20 70 30 150" fill="none" stroke="#ef4444" stroke-width="1.5"></path><path d="M50 114 Q20 100 30 150" fill="none" stroke="#ef4444" stroke-width="1.5"></path><path d="M170 174 Q200 160 190 150" fill="none" stroke="#ef4444" stroke-width="1.5"></path><path d="M170 144 Q200 130 190 150" fill="none" stroke="#ef4444" stroke-width="1.5"></path><path d="M170 114 Q200 100 190 150" fill="none" stroke="#ef4444" stroke-width="1.5"></path><text x="110" y="14" text-anchor="middle" font-size="11" fill="#94a3b8" font-weight="600">와이어 본딩</text><text x="110" y="28" text-anchor="middle" font-size="9" fill="#ef4444">가장자리로만 연결 → 핀 수 제한</text></svg>