<svg width="100%" viewBox="0 0 520 230" style="font-family:sans-serif"><g><text x="84" y="28" text-anchor="end" font-size="11" fill="#94a3b8" font-weight="600">SDR</text><rect x="90" y="14" width="6.3238095238095235" height="22" fill="#6b7280" rx="3" opacity="0.85"></rect><text x="102.32380952380953" y="28" font-size="11" fill="#e2e8f0" font-weight="600">166 MT/s</text><text x="514" y="28" text-anchor="end" font-size="10" fill="#64748b">프리페치 1n · 1997</text></g><g><text x="84" y="62" text-anchor="end" font-size="11" fill="#94a3b8" font-weight="600">DDR</text><rect x="90" y="48" width="15.238095238095237" height="22" fill="#6b7280" rx="3" opacity="0.85"></rect><text x="111.23809523809524" y="62" font-size="11" fill="#e2e8f0" font-weight="600">400 MT/s</text><text x="514" y="62" text-anchor="end" font-size="10" fill="#64748b">프리페치 2n · 2000</text></g><g><text x="84" y="96" text-anchor="end" font-size="11" fill="#94a3b8" font-weight="600">DDR2</text><rect x="90" y="82" width="40.60952380952381" height="22" fill="#3b82f6" rx="3" opacity="0.85"></rect><text x="136.6095238095238" y="96" font-size="11" fill="#e2e8f0" font-weight="600">1066 MT/s</text><text x="514" y="96" text-anchor="end" font-size="10" fill="#64748b">프리페치 4n · 2003</text></g><g><text x="84" y="130" text-anchor="end" font-size="11" fill="#94a3b8" font-weight="600">DDR3</text><rect x="90" y="116" width="81.25714285714287" height="22" fill="#3b82f6" rx="3" opacity="0.85"></rect><text x="177.25714285714287" y="130" font-size="11" fill="#e2e8f0" font-weight="600">2133 MT/s</text><text x="514" y="130" text-anchor="end" font-size="10" fill="#64748b">프리페치 8n · 2007</text></g><g><text x="84" y="164" text-anchor="end" font-size="11" fill="#94a3b8" font-weight="600">DDR4</text><rect x="90" y="150" width="121.9047619047619" height="22" fill="#f59e0b" rx="3" opacity="0.85"></rect><text x="217.9047619047619" y="164" font-size="11" fill="#e2e8f0" font-weight="600">3200 MT/s</text><text x="514" y="164" text-anchor="end" font-size="10" fill="#64748b">프리페치 8n · 2014</text></g><g><text x="84" y="198" text-anchor="end" font-size="11" fill="#94a3b8" font-weight="600">DDR5</text><rect x="90" y="184" width="320" height="22" fill="#ef4444" rx="3" opacity="0.85"></rect><text x="416" y="198" font-size="11" fill="#e2e8f0" font-weight="600">8400 MT/s</text><text x="514" y="198" text-anchor="end" font-size="10" fill="#64748b">프리페치 16n · 2020</text></g><line x1="90" y1="6" x2="90" y2="218" stroke="#334155" stroke-width="1"></line><text x="250" y="224" text-anchor="middle" font-size="10" fill="#64748b">세대별 최대 데이터 전송률 (MT/s, 핀당) — 코어 클럭은 거의 그대로, 프리페치로 대역폭 확장</text></svg>