<svg width="100%" viewBox="0 0 480 200" style="font-family:sans-serif;max-width:560px"><text x="8" y="16" font-size="10" fill="#94a3b8" font-weight="600">I/O 버스폭 확장 — HBM3E → HBM4</text><text x="4" y="52" font-size="11" fill="#ec4899" font-weight="600">HBM3E</text><text x="4" y="66" font-size="9" fill="#64748b">1,024-bit</text><rect x="80" y="40" width="18" height="18" fill="#ec4899" rx="2" opacity="0.7"></rect><rect x="102" y="40" width="18" height="18" fill="#ec4899" rx="2" opacity="0.7"></rect><rect x="124" y="40" width="18" height="18" fill="#ec4899" rx="2" opacity="0.7"></rect><rect x="146" y="40" width="18" height="18" fill="#ec4899" rx="2" opacity="0.7"></rect><rect x="168" y="40" width="18" height="18" fill="#ec4899" rx="2" opacity="0.7"></rect><rect x="190" y="40" width="18" height="18" fill="#ec4899" rx="2" opacity="0.7"></rect><rect x="212" y="40" width="18" height="18" fill="#ec4899" rx="2" opacity="0.7"></rect><rect x="234" y="40" width="18" height="18" fill="#ec4899" rx="2" opacity="0.7"></rect><text x="264" y="53" font-size="10" fill="#ec4899" font-weight="700">1,024-bit · ~1.2 TB/s</text><line x1="236" y1="100" x2="236" y2="120" stroke="#64748b" stroke-width="1.5" marker-end="url(#arr)"></line><text x="244" y="113" font-size="9" fill="#94a3b8">×2</text><text x="4" y="152" font-size="12" fill="#f59e0b" font-weight="700">HBM4</text><text x="4" y="166" font-size="9" fill="#64748b">2,048-bit</text><rect x="80" y="138" width="18" height="18" fill="#f59e0b" rx="2" opacity="0.8"></rect><rect x="102" y="138" width="18" height="18" fill="#f59e0b" rx="2" opacity="0.8"></rect><rect x="124" y="138" width="18" height="18" fill="#f59e0b" rx="2" opacity="0.8"></rect><rect x="146" y="138" width="18" height="18" fill="#f59e0b" rx="2" opacity="0.8"></rect><rect x="168" y="138" width="18" height="18" fill="#f59e0b" rx="2" opacity="0.8"></rect><rect x="190" y="138" width="18" height="18" fill="#f59e0b" rx="2" opacity="0.8"></rect><rect x="212" y="138" width="18" height="18" fill="#f59e0b" rx="2" opacity="0.8"></rect><rect x="234" y="138" width="18" height="18" fill="#f59e0b" rx="2" opacity="0.8"></rect><rect x="256" y="138" width="18" height="18" fill="#f59e0b" rx="2" opacity="0.8"></rect><rect x="278" y="138" width="18" height="18" fill="#f59e0b" rx="2" opacity="0.8"></rect><rect x="300" y="138" width="18" height="18" fill="#f59e0b" rx="2" opacity="0.8"></rect><rect x="322" y="138" width="18" height="18" fill="#f59e0b" rx="2" opacity="0.8"></rect><rect x="344" y="138" width="18" height="18" fill="#f59e0b" rx="2" opacity="0.8"></rect><rect x="366" y="138" width="18" height="18" fill="#f59e0b" rx="2" opacity="0.8"></rect><rect x="388" y="138" width="18" height="18" fill="#f59e0b" rx="2" opacity="0.8"></rect><rect x="410" y="138" width="18" height="18" fill="#f59e0b" rx="2" opacity="0.8"></rect><text x="80" y="174" font-size="10" fill="#f59e0b" font-weight="700">2,048-bit · 2.0 TB/s</text><defs><marker id="arr" markerWidth="8" markerHeight="8" refX="3" refY="4" orient="auto"><path d="M0 0 L6 4 L0 8" fill="none" stroke="#64748b" stroke-width="1.2"></path></marker></defs></svg>