<svg width="100%" viewBox="0 0 480 200" style="font-family:sans-serif"><polygon points="48,163.964 130.4,163.712 212.8,162.56 295.2,156.79999999999998 377.6,135.2 460,20 460,162.848 377.6,163.352 295.2,163.64000000000001 212.8,163.82 130.4,163.91 48,163.964" fill="#ef444422"></polygon><polyline points="48,163.964 130.4,163.712 212.8,162.56 295.2,156.79999999999998 377.6,135.2 460,20" fill="none" stroke="#f87171" stroke-width="2.5"></polyline><polyline points="48,163.964 130.4,163.91 212.8,163.82 295.2,163.64000000000001 377.6,163.352 460,162.848" fill="none" stroke="#60a5fa" stroke-width="2.5"></polyline><text x="48" y="194" text-anchor="middle" font-size="9" fill="#94a3b8">2000</text><text x="130.4" y="194" text-anchor="middle" font-size="9" fill="#94a3b8">2005</text><text x="212.8" y="194" text-anchor="middle" font-size="9" fill="#94a3b8">2010</text><text x="295.2" y="194" text-anchor="middle" font-size="9" fill="#94a3b8">2015</text><text x="377.6" y="194" text-anchor="middle" font-size="9" fill="#94a3b8">2020</text><text x="460" y="194" text-anchor="middle" font-size="9" fill="#94a3b8">2025</text><text x="44" y="20" text-anchor="end" font-size="9" fill="#94a3b8">4000×</text><text x="44" y="163.964" text-anchor="end" font-size="9" fill="#94a3b8">1×</text><rect x="370" y="20" width="12" height="3" fill="#f87171" rx="1"></rect><text x="386" y="24" font-size="9" fill="#f87171">연산 성능 (FLOPs)</text><rect x="370" y="34" width="12" height="3" fill="#60a5fa" rx="1"></rect><text x="386" y="38" font-size="9" fill="#60a5fa">메모리 대역폭</text><text x="240" y="192" text-anchor="middle" font-size="9" fill="#64748b">※ 2000년 기준 상대값 (로그 스케일 근사)</text><text x="350" y="84" font-size="10" fill="#fbbf24" font-weight="600">메모리 월</text><line x1="420" y1="99.2" x2="450" y2="161.84" stroke="#fbbf24" stroke-width="1.5" marker-end="url(#arr)"></line><defs><marker id="arr" markerWidth="6" markerHeight="6" refX="3" refY="3" orient="auto"><path d="M0,0 L0,6 L6,3 z" fill="#fbbf24"></path></marker></defs></svg>